<svg width="256" height="256" viewBox="0 0 256 256" fill="none" xmlns="http://www.w3.org/2000/svg">
<rect width="256" height="256" rx="128" fill="#05EAC3"/>
<path d="M37.0938 152V83.75H61C69.2812 83.75 75.5625 85.3438 79.8438 88.5312C84.125 91.6875 86.2656 96.3281 86.2656 102.453C86.2656 105.797 85.4062 108.75 83.6875 111.312C81.9688 113.844 79.5781 115.703 76.5156 116.891C80.0156 117.766 82.7656 119.531 84.7656 122.188C86.7969 124.844 87.8125 128.094 87.8125 131.938C87.8125 138.5 85.7188 143.469 81.5312 146.844C77.3438 150.219 71.375 151.938 63.625 152H37.0938ZM51.1562 122.281V140.703H63.2031C66.5156 140.703 69.0938 139.922 70.9375 138.359C72.8125 136.766 73.75 134.578 73.75 131.797C73.75 125.547 70.5156 122.375 64.0469 122.281H51.1562ZM51.1562 112.344H61.5625C68.6562 112.219 72.2031 109.391 72.2031 103.859C72.2031 100.766 71.2969 98.5469 69.4844 97.2031C67.7031 95.8281 64.875 95.1406 61 95.1406H51.1562V112.344ZM199.375 132.312L208.562 83.75H222.578L207.438 152H193.281L182.172 106.344L171.062 152H156.906L141.766 83.75H155.781L165.016 132.219L176.266 83.75H188.172L199.375 132.312Z" fill="black"/>
<path d="M138.422 152H91.6406V142.719L113.719 119.188C116.75 115.875 118.984 112.984 120.422 110.516C121.891 108.047 122.625 105.703 122.625 103.484C122.625 100.453 121.859 98.0781 120.328 96.3594C118.797 94.6094 116.609 93.7344 113.766 93.7344C110.703 93.7344 108.281 94.7969 106.5 96.9219C104.75 99.0156 103.875 101.781 103.875 105.219H90.2812C90.2812 101.062 91.2656 97.2656 93.2344 93.8281C95.2344 90.3906 98.0469 87.7031 101.672 85.7656C105.297 83.7969 109.406 82.8125 114 82.8125C121.031 82.8125 126.484 84.5 130.359 87.875C134.266 91.25 136.219 96.0156 136.219 102.172C136.219 105.547 135.344 108.984 133.594 112.484C131.844 115.984 128.844 120.062 124.594 124.719L109.078 141.078H138.422V152Z" fill="white"/>
<path d="M42.9805 187V169.938H47.7969C49.2812 169.938 50.5938 170.266 51.7344 170.922C52.875 171.578 53.7539 172.512 54.3711 173.723C54.9961 174.934 55.3125 176.324 55.3203 177.895V178.984C55.3203 180.594 55.0078 182.004 54.3828 183.215C53.7656 184.426 52.8789 185.355 51.7227 186.004C50.5742 186.652 49.2344 186.984 47.7031 187H42.9805ZM45.2305 171.789V185.16H47.5977C49.332 185.16 50.6797 184.621 51.6406 183.543C52.6094 182.465 53.0938 180.93 53.0938 178.938V177.941C53.0938 176.004 52.6367 174.5 51.7227 173.43C50.8164 172.352 49.5273 171.805 47.8555 171.789H45.2305ZM60.7461 187H58.5781V174.32H60.7461V187ZM58.4023 170.957C58.4023 170.605 58.5078 170.309 58.7188 170.066C58.9375 169.824 59.2578 169.703 59.6797 169.703C60.1016 169.703 60.4219 169.824 60.6406 170.066C60.8594 170.309 60.9688 170.605 60.9688 170.957C60.9688 171.309 60.8594 171.602 60.6406 171.836C60.4219 172.07 60.1016 172.188 59.6797 172.188C59.2578 172.188 58.9375 172.07 58.7188 171.836C58.5078 171.602 58.4023 171.309 58.4023 170.957ZM63.7109 180.555C63.7109 178.578 64.168 177.008 65.082 175.844C65.9961 174.672 67.207 174.086 68.7148 174.086C70.2617 174.086 71.4688 174.633 72.3359 175.727L72.4414 174.32H74.4219V186.695C74.4219 188.336 73.9336 189.629 72.957 190.574C71.9883 191.52 70.6836 191.992 69.043 191.992C68.1289 191.992 67.2344 191.797 66.3594 191.406C65.4844 191.016 64.8164 190.48 64.3555 189.801L65.4805 188.5C66.4102 189.648 67.5469 190.223 68.8906 190.223C69.9453 190.223 70.7656 189.926 71.3516 189.332C71.9453 188.738 72.2422 187.902 72.2422 186.824V185.734C71.375 186.734 70.1914 187.234 68.6914 187.234C67.207 187.234 66.0039 186.637 65.082 185.441C64.168 184.246 63.7109 182.617 63.7109 180.555ZM65.8906 180.801C65.8906 182.23 66.1836 183.355 66.7695 184.176C67.3555 184.988 68.1758 185.395 69.2305 185.395C70.5977 185.395 71.6016 184.773 72.2422 183.531V177.742C71.5781 176.531 70.582 175.926 69.2539 175.926C68.1992 175.926 67.375 176.336 66.7812 177.156C66.1875 177.977 65.8906 179.191 65.8906 180.801ZM80.0586 187H77.8906V174.32H80.0586V187ZM77.7148 170.957C77.7148 170.605 77.8203 170.309 78.0312 170.066C78.25 169.824 78.5703 169.703 78.9922 169.703C79.4141 169.703 79.7344 169.824 79.9531 170.066C80.1719 170.309 80.2812 170.605 80.2812 170.957C80.2812 171.309 80.1719 171.602 79.9531 171.836C79.7344 172.07 79.4141 172.188 78.9922 172.188C78.5703 172.188 78.25 172.07 78.0312 171.836C77.8203 171.602 77.7148 171.309 77.7148 170.957ZM86.4805 171.25V174.32H88.8477V175.996H86.4805V183.859C86.4805 184.367 86.5859 184.75 86.7969 185.008C87.0078 185.258 87.3672 185.383 87.875 185.383C88.125 185.383 88.4688 185.336 88.9062 185.242V187C88.3359 187.156 87.7812 187.234 87.2422 187.234C86.2734 187.234 85.543 186.941 85.0508 186.355C84.5586 185.77 84.3125 184.938 84.3125 183.859V175.996H82.0039V174.32H84.3125V171.25H86.4805ZM99.2188 187C99.0938 186.75 98.9922 186.305 98.9141 185.664C97.9062 186.711 96.7031 187.234 95.3047 187.234C94.0547 187.234 93.0273 186.883 92.2227 186.18C91.4258 185.469 91.0273 184.57 91.0273 183.484C91.0273 182.164 91.5273 181.141 92.5273 180.414C93.5352 179.68 94.9492 179.312 96.7695 179.312H98.8789V178.316C98.8789 177.559 98.6523 176.957 98.1992 176.512C97.7461 176.059 97.0781 175.832 96.1953 175.832C95.4219 175.832 94.7734 176.027 94.25 176.418C93.7266 176.809 93.4648 177.281 93.4648 177.836H91.2852C91.2852 177.203 91.5078 176.594 91.9531 176.008C92.4062 175.414 93.0156 174.945 93.7812 174.602C94.5547 174.258 95.4023 174.086 96.3242 174.086C97.7852 174.086 98.9297 174.453 99.7578 175.188C100.586 175.914 101.016 176.918 101.047 178.199V184.035C101.047 185.199 101.195 186.125 101.492 186.812V187H99.2188ZM95.6211 185.348C96.3008 185.348 96.9453 185.172 97.5547 184.82C98.1641 184.469 98.6055 184.012 98.8789 183.449V180.848H97.1797C94.5234 180.848 93.1953 181.625 93.1953 183.18C93.1953 183.859 93.4219 184.391 93.875 184.773C94.3281 185.156 94.9102 185.348 95.6211 185.348ZM106.801 187H104.633V169H106.801V187ZM121.602 179.395C119.672 178.84 118.266 178.16 117.383 177.355C116.508 176.543 116.07 175.543 116.07 174.355C116.07 173.012 116.605 171.902 117.676 171.027C118.754 170.145 120.152 169.703 121.871 169.703C123.043 169.703 124.086 169.93 125 170.383C125.922 170.836 126.633 171.461 127.133 172.258C127.641 173.055 127.895 173.926 127.895 174.871H125.633C125.633 173.84 125.305 173.031 124.648 172.445C123.992 171.852 123.066 171.555 121.871 171.555C120.762 171.555 119.895 171.801 119.27 172.293C118.652 172.777 118.344 173.453 118.344 174.32C118.344 175.016 118.637 175.605 119.223 176.09C119.816 176.566 120.82 177.004 122.234 177.402C123.656 177.801 124.766 178.242 125.562 178.727C126.367 179.203 126.961 179.762 127.344 180.402C127.734 181.043 127.93 181.797 127.93 182.664C127.93 184.047 127.391 185.156 126.312 185.992C125.234 186.82 123.793 187.234 121.988 187.234C120.816 187.234 119.723 187.012 118.707 186.566C117.691 186.113 116.906 185.496 116.352 184.715C115.805 183.934 115.531 183.047 115.531 182.055H117.793C117.793 183.086 118.172 183.902 118.93 184.504C119.695 185.098 120.715 185.395 121.988 185.395C123.176 185.395 124.086 185.152 124.719 184.668C125.352 184.184 125.668 183.523 125.668 182.688C125.668 181.852 125.375 181.207 124.789 180.754C124.203 180.293 123.141 179.84 121.602 179.395ZM129.91 180.543C129.91 179.301 130.152 178.184 130.637 177.191C131.129 176.199 131.809 175.434 132.676 174.895C133.551 174.355 134.547 174.086 135.664 174.086C137.391 174.086 138.785 174.684 139.848 175.879C140.918 177.074 141.453 178.664 141.453 180.648V180.801C141.453 182.035 141.215 183.145 140.738 184.129C140.27 185.105 139.594 185.867 138.711 186.414C137.836 186.961 136.828 187.234 135.688 187.234C133.969 187.234 132.574 186.637 131.504 185.441C130.441 184.246 129.91 182.664 129.91 180.695V180.543ZM132.09 180.801C132.09 182.207 132.414 183.336 133.062 184.188C133.719 185.039 134.594 185.465 135.688 185.465C136.789 185.465 137.664 185.035 138.312 184.176C138.961 183.309 139.285 182.098 139.285 180.543C139.285 179.152 138.953 178.027 138.289 177.168C137.633 176.301 136.758 175.867 135.664 175.867C134.594 175.867 133.73 176.293 133.074 177.145C132.418 177.996 132.09 179.215 132.09 180.801ZM146.527 187H144.359V169H146.527V187ZM157.836 185.746C156.992 186.738 155.754 187.234 154.121 187.234C152.77 187.234 151.738 186.844 151.027 186.062C150.324 185.273 149.969 184.109 149.961 182.57V174.32H152.129V182.512C152.129 184.434 152.91 185.395 154.473 185.395C156.129 185.395 157.23 184.777 157.777 183.543V174.32H159.945V187H157.883L157.836 185.746ZM166.191 171.25V174.32H168.559V175.996H166.191V183.859C166.191 184.367 166.297 184.75 166.508 185.008C166.719 185.258 167.078 185.383 167.586 185.383C167.836 185.383 168.18 185.336 168.617 185.242V187C168.047 187.156 167.492 187.234 166.953 187.234C165.984 187.234 165.254 186.941 164.762 186.355C164.27 185.77 164.023 184.938 164.023 183.859V175.996H161.715V174.32H164.023V171.25H166.191ZM173.457 187H171.289V174.32H173.457V187ZM171.113 170.957C171.113 170.605 171.219 170.309 171.43 170.066C171.648 169.824 171.969 169.703 172.391 169.703C172.812 169.703 173.133 169.824 173.352 170.066C173.57 170.309 173.68 170.605 173.68 170.957C173.68 171.309 173.57 171.602 173.352 171.836C173.133 172.07 172.812 172.188 172.391 172.188C171.969 172.188 171.648 172.07 171.43 171.836C171.219 171.602 171.113 171.309 171.113 170.957ZM176.363 180.543C176.363 179.301 176.605 178.184 177.09 177.191C177.582 176.199 178.262 175.434 179.129 174.895C180.004 174.355 181 174.086 182.117 174.086C183.844 174.086 185.238 174.684 186.301 175.879C187.371 177.074 187.906 178.664 187.906 180.648V180.801C187.906 182.035 187.668 183.145 187.191 184.129C186.723 185.105 186.047 185.867 185.164 186.414C184.289 186.961 183.281 187.234 182.141 187.234C180.422 187.234 179.027 186.637 177.957 185.441C176.895 184.246 176.363 182.664 176.363 180.695V180.543ZM178.543 180.801C178.543 182.207 178.867 183.336 179.516 184.188C180.172 185.039 181.047 185.465 182.141 185.465C183.242 185.465 184.117 185.035 184.766 184.176C185.414 183.309 185.738 182.098 185.738 180.543C185.738 179.152 185.406 178.027 184.742 177.168C184.086 176.301 183.211 175.867 182.117 175.867C181.047 175.867 180.184 176.293 179.527 177.145C178.871 177.996 178.543 179.215 178.543 180.801ZM192.676 174.32L192.746 175.914C193.715 174.695 194.98 174.086 196.543 174.086C199.223 174.086 200.574 175.598 200.598 178.621V187H198.43V178.609C198.422 177.695 198.211 177.02 197.797 176.582C197.391 176.145 196.754 175.926 195.887 175.926C195.184 175.926 194.566 176.113 194.035 176.488C193.504 176.863 193.09 177.355 192.793 177.965V187H190.625V174.32H192.676ZM211.25 183.637C211.25 183.051 211.027 182.598 210.582 182.277C210.145 181.949 209.375 181.668 208.273 181.434C207.18 181.199 206.309 180.918 205.66 180.59C205.02 180.262 204.543 179.871 204.23 179.418C203.926 178.965 203.773 178.426 203.773 177.801C203.773 176.762 204.211 175.883 205.086 175.164C205.969 174.445 207.094 174.086 208.461 174.086C209.898 174.086 211.062 174.457 211.953 175.199C212.852 175.941 213.301 176.891 213.301 178.047H211.121C211.121 177.453 210.867 176.941 210.359 176.512C209.859 176.082 209.227 175.867 208.461 175.867C207.672 175.867 207.055 176.039 206.609 176.383C206.164 176.727 205.941 177.176 205.941 177.73C205.941 178.254 206.148 178.648 206.562 178.914C206.977 179.18 207.723 179.434 208.801 179.676C209.887 179.918 210.766 180.207 211.438 180.543C212.109 180.879 212.605 181.285 212.926 181.762C213.254 182.23 213.418 182.805 213.418 183.484C213.418 184.617 212.965 185.527 212.059 186.215C211.152 186.895 209.977 187.234 208.531 187.234C207.516 187.234 206.617 187.055 205.836 186.695C205.055 186.336 204.441 185.836 203.996 185.195C203.559 184.547 203.34 183.848 203.34 183.098H205.508C205.547 183.824 205.836 184.402 206.375 184.832C206.922 185.254 207.641 185.465 208.531 185.465C209.352 185.465 210.008 185.301 210.5 184.973C211 184.637 211.25 184.191 211.25 183.637Z" fill="black"/>
</svg>
